<?xml version="1.0" encoding="UTF-8" standalone="no"?><!DOCTYPE svg PUBLIC "-//W3C//DTD SVG 1.1//EN" "http://www.w3.org/Graphics/SVG/1.1/DTD/svg11.dtd"><svg width="100%" height="100%" viewBox="0 0 649 855" version="1.1" xmlns="http://www.w3.org/2000/svg" xmlns:xlink="http://www.w3.org/1999/xlink" xml:space="preserve" xmlns:serif="http://www.serif.com/" style="fill-rule:evenodd;clip-rule:evenodd;stroke-linejoin:round;stroke-miterlimit:2;"><rect id="Mesa-de-trabajo1" serif:id="Mesa de trabajo1" x="0" y="0" width="648.948" height="854.826" style="fill:none;"/><path d="M5.73,125.646l310.148,-117.642l327.463,123.244l0,369.631c-6.963,114.87 -122.589,254.447 -310.177,346.399c-180.245,-69.154 -301.5,-199.836 -327.434,-348.946l-0,-372.686Z" style="fill:#ccbf92;"/><path d="M19.717,137.044l296.007,-112.279l312.533,117.625l0,352.778c-6.646,109.632 -117,247.618 -296.035,335.377c-172.027,-66.001 -287.753,-195.497 -312.505,-337.808l0,-355.694Z" style="fill:url(#_Linear1);"/><path d="M76.738,551.433c0,0 165.287,4 247.754,4c82.36,0 247.049,-4 247.049,-4c0,0 -164.629,-10.207 -247.049,-10.207c-82.467,0 -247.754,10.207 -247.754,10.207Z" style="fill:#fff;"/><g id="surface1"><path d="M271.494,609.645c-6.783,0.422 -9.726,3.684 -11.934,6c-2.366,2.472 -3.682,7.68 -3.682,7.68l0,-13.574l-26.444,0c-1.998,0 -3.892,0.841 -5.311,2.841c-1.471,1.948 -7.517,11.944 -7.517,11.944l104.573,0l0,-14.891l-49.685,0Zm131.65,0c-6.729,0.422 -9.726,3.684 -11.934,6c-2.366,2.472 -3.682,7.68 -3.682,7.68l0,1.211l68.77,0l0,-14.891l-53.154,0Zm-79.39,0.054l0,14.837l14.881,0l0,-14.837l-14.881,0Zm48.792,0l0,14.837l14.825,0l0,-14.837l-14.825,0Zm-156.572,15.732l-25.551,40.199l17.455,0l24.606,-38.411l-16.51,-1.788Zm107.938,0.21l0,21.645c-0.023,-0.443 -0.052,-1.072 -0.052,-1.072c-0.368,-2.21 -4.575,-11.996 -13.617,-12.839c-5.415,-0.527 -53.627,-4.366 -53.627,-4.366c0.947,4.841 3.103,7.313 4.575,8.681c3.365,3.209 8.675,4.158 8.675,4.158c1.261,0.104 37.171,3.103 37.171,3.103c1.157,0.052 3.313,0.368 3.261,3.209c0,0.368 -0.316,2.843 -3.051,2.843l-51.997,0l0,-22.1l-14.458,-1.051c-0.052,0 -0.052,37.778 -0.052,37.778l69.504,0c12.092,-2.42 13.355,-13.47 13.355,-13.47c0.212,-1.207 0.285,-2.271 0.314,-3.213l0,3.055c2.366,12.627 13.776,13.628 13.776,13.628c0,0 1.157,0.052 1.367,0.104l33.911,0c0,0 14.51,-1.157 14.51,-15.153l-0.106,-20.677l-14.614,-0.895l0,17.205c0,0 -0.054,4.945 -4.837,4.945l-25.027,0c0,0 -4.258,-0.368 -4.258,-4.893l0,-19.572l-14.723,-1.053Zm64.512,4.262c1.419,4.997 3.365,6.525 4.837,7.892c3.365,3.261 8.358,3.998 8.358,3.998c1.263,0.106 37.541,3.157 37.541,3.157c1.155,0.052 3.521,0.158 3.521,2.999c0,0.843 -0.42,1.738 -0.947,2.21c0,0 -1.261,0.685 -2.47,0.685l-51.629,0l-0.158,14.889l53.206,0c13.355,-0.789 15.247,-13.47 15.247,-13.47c0.472,-3.313 0.106,-6.05 0.106,-6.05c-0.368,-2.999 -4.627,-12.05 -13.724,-12.943c-5.361,-0.527 -53.889,-3.367 -53.889,-3.367Z" style="fill:#fff;fill-rule:nonzero;"/></g><g><path d="M102.417,326.504l27.171,0l0,45.321c-4.077,1.662 -8.268,2.898 -12.575,3.707c-4.307,0.81 -9.119,1.215 -14.436,1.215c-8.082,0 -14.897,-1.939 -20.445,-5.817c-5.548,-3.878 -9.757,-9.407 -12.629,-16.588c-2.871,-7.181 -4.307,-15.714 -4.307,-25.601c0,-9.673 1.586,-18.111 4.759,-25.313c3.173,-7.202 7.763,-12.795 13.772,-16.779c6.009,-3.984 13.231,-5.977 21.668,-5.977c4.325,0 8.428,0.479 12.309,1.438c3.882,0.959 7.488,2.312 10.821,4.059l-3.456,9.46c-2.871,-1.492 -6.035,-2.77 -9.491,-3.835c-3.456,-1.065 -7.028,-1.598 -10.714,-1.598c-6.345,0 -11.778,1.577 -16.297,4.73c-4.52,3.153 -7.976,7.607 -10.369,13.36c-2.393,5.753 -3.589,12.571 -3.589,20.455c0,7.798 1.046,14.585 3.137,20.359c2.091,5.774 5.353,10.259 9.784,13.456c4.431,3.196 10.138,4.794 17.122,4.794c3.509,0 6.523,-0.245 9.039,-0.735c2.517,-0.49 4.803,-1.076 6.859,-1.758l0,-28.637l-18.132,0l0,-9.716Z" style="fill:#ccbf91;fill-rule:nonzero;"/><path d="M197.117,375.468l-9.571,-29.66l-31.159,0l-9.518,29.66l-9.146,0l30.415,-93.837l8.135,0l30.202,93.837l-9.358,0Zm-12.283,-39.312l-9.093,-29.468c-0.213,-0.767 -0.558,-2.024 -1.037,-3.771c-0.479,-1.747 -0.966,-3.558 -1.462,-5.433c-0.496,-1.875 -0.904,-3.388 -1.223,-4.538c-0.354,1.747 -0.736,3.484 -1.143,5.21c-0.408,1.726 -0.806,3.324 -1.196,4.794c-0.39,1.47 -0.727,2.717 -1.01,3.739l-9.252,29.468l25.417,0Z" style="fill:#ccbf91;fill-rule:nonzero;"/><path d="M238.22,282.015c6.381,0 11.654,0.948 15.819,2.845c4.165,1.896 7.276,4.783 9.332,8.661c2.056,3.878 3.084,8.821 3.084,14.83c0,4.943 -0.744,9.066 -2.233,12.369c-1.489,3.303 -3.439,5.977 -5.849,8.022c-2.41,2.045 -4.981,3.622 -7.71,4.73l21.322,41.997l-10.528,0l-19.036,-38.992l-16.165,0l0,38.992l-9.039,0l0,-93.454l21.003,0Zm-0.532,9.397l-11.432,0l0,35.86l12.336,0c6.345,0 11.016,-1.555 14.011,-4.666c2.995,-3.111 4.493,-7.692 4.493,-13.743c0,-6.35 -1.586,-10.845 -4.759,-13.487c-3.173,-2.642 -8.056,-3.963 -14.649,-3.963Z" style="fill:#ccbf91;fill-rule:nonzero;"/><path d="M333.186,375.468l-9.571,-29.66l-31.159,0l-9.518,29.66l-9.146,0l30.415,-93.837l8.135,0l30.202,93.837l-9.358,0Zm-12.283,-39.312l-9.093,-29.468c-0.213,-0.767 -0.558,-2.024 -1.037,-3.771c-0.479,-1.747 -0.966,-3.558 -1.462,-5.433c-0.496,-1.875 -0.904,-3.388 -1.223,-4.538c-0.354,1.747 -0.736,3.484 -1.143,5.21c-0.408,1.726 -0.806,3.324 -1.196,4.794c-0.39,1.47 -0.727,2.717 -1.01,3.739l-9.252,29.468l25.417,0Z" style="fill:#ccbf91;fill-rule:nonzero;"/><path d="M414.062,375.468l-10.422,0l-42.379,-78.496l-0.425,0c0.106,2.088 0.23,4.464 0.372,7.127c0.142,2.663 0.257,5.497 0.346,8.502c0.089,3.004 0.133,6.062 0.133,9.173l0,53.694l-8.401,0l0,-93.454l10.369,0l42.219,78.24l0.372,0c-0.071,-1.492 -0.16,-3.612 -0.266,-6.36c-0.106,-2.749 -0.204,-5.71 -0.292,-8.885c-0.089,-3.175 -0.133,-6.126 -0.133,-8.853l0,-54.142l8.508,0l0,93.454Z" style="fill:#ccbf91;fill-rule:nonzero;"/><path d="M459.153,375.468l-9.093,0l0,-83.865l-24.459,0l0,-9.588l57.905,0l0,9.588l-24.353,0l0,83.865Z" style="fill:#ccbf91;fill-rule:nonzero;"/><path d="M495.257,375.468l0,-93.454l9.039,0l0,93.454l-9.039,0Zm20.472,-123.753l0,1.278c-0.709,1.236 -1.675,2.717 -2.898,4.443c-1.223,1.726 -2.579,3.537 -4.068,5.433c-1.489,1.896 -2.987,3.697 -4.493,5.401c-1.507,1.705 -2.898,3.175 -4.174,4.411l-5.902,0l0,-1.534c1.134,-1.619 2.375,-3.569 3.722,-5.849c1.347,-2.28 2.659,-4.624 3.935,-7.031c1.276,-2.408 2.34,-4.592 3.19,-6.552l10.688,0Z" style="fill:#ccbf91;fill-rule:nonzero;"/><path d="M574.431,375.468l-9.571,-29.66l-31.159,0l-9.518,29.66l-9.146,0l30.415,-93.837l8.135,0l30.202,93.837l-9.358,0Zm-12.283,-39.312l-9.093,-29.468c-0.213,-0.767 -0.558,-2.024 -1.037,-3.771c-0.479,-1.747 -0.966,-3.558 -1.462,-5.433c-0.496,-1.875 -0.904,-3.388 -1.223,-4.538c-0.354,1.747 -0.736,3.484 -1.143,5.21c-0.408,1.726 -0.806,3.324 -1.196,4.794c-0.39,1.47 -0.727,2.717 -1.01,3.739l-9.252,29.468l25.417,0Z" style="fill:#ccbf91;fill-rule:nonzero;"/><path d="M98.482,393.313c10.032,0 17.361,2.354 21.987,7.063c4.626,4.709 6.939,11.453 6.939,20.231c0,3.963 -0.541,7.724 -1.622,11.282c-1.081,3.558 -2.827,6.69 -5.238,9.397c-2.41,2.706 -5.574,4.837 -9.491,6.392c-3.917,1.555 -8.711,2.333 -14.383,2.333l-9.465,0l0,36.755l-9.039,0l0,-93.454l20.312,0Zm-0.851,9.269l-10.422,0l0,38.097l8.454,0c4.963,0 9.101,-0.639 12.416,-1.918c3.314,-1.278 5.805,-3.356 7.471,-6.232c1.666,-2.876 2.499,-6.701 2.499,-11.474c0,-6.222 -1.648,-10.856 -4.945,-13.903c-3.297,-3.047 -8.454,-4.57 -15.473,-4.57Z" style="fill:#ccbf91;fill-rule:nonzero;"/><path d="M186.961,486.766l-43.283,0l0,-93.454l43.283,0l0,9.588l-34.243,0l0,30.235l32.276,0l0,9.46l-32.276,0l0,34.582l34.243,0l0,9.588Z" style="fill:#ccbf91;fill-rule:nonzero;"/><path d="M225.192,393.313c6.381,0 11.654,0.948 15.819,2.845c4.165,1.896 7.276,4.783 9.332,8.661c2.056,3.878 3.084,8.821 3.084,14.83c0,4.943 -0.744,9.066 -2.233,12.369c-1.489,3.303 -3.439,5.977 -5.849,8.022c-2.41,2.045 -4.981,3.622 -7.71,4.73l21.322,41.997l-10.528,0l-19.036,-38.992l-16.165,0l0,38.992l-9.039,0l0,-93.454l21.003,0Zm-0.532,9.397l-11.432,0l0,35.86l12.336,0c6.345,0 11.016,-1.555 14.011,-4.666c2.995,-3.111 4.493,-7.692 4.493,-13.743c0,-6.35 -1.586,-10.845 -4.759,-13.487c-3.173,-2.642 -8.056,-3.963 -14.649,-3.963Z" style="fill:#ccbf91;fill-rule:nonzero;"/><path d="M280.439,486.766l-9.039,0l0,-93.454l43.283,0l0,9.588l-34.243,0l0,34.262l32.17,0l0,9.524l-32.17,0l0,40.079Z" style="fill:#ccbf91;fill-rule:nonzero;"/><path d="M370.886,486.766l-43.283,0l0,-93.454l43.283,0l0,9.588l-34.243,0l0,30.235l32.276,0l0,9.46l-32.276,0l0,34.582l34.243,0l0,9.588Z" style="fill:#ccbf91;fill-rule:nonzero;"/><path d="M421.347,401.558c-4.289,0 -8.144,0.884 -11.565,2.653c-3.421,1.769 -6.328,4.325 -8.72,7.671c-2.393,3.345 -4.227,7.383 -5.503,12.113c-1.276,4.73 -1.914,10.057 -1.914,15.98c0,7.841 1.019,14.649 3.057,20.423c2.038,5.774 5.087,10.238 9.146,13.392c4.059,3.153 9.137,4.73 15.234,4.73c3.474,0 6.744,-0.352 9.81,-1.055c3.066,-0.703 6.053,-1.587 8.96,-2.653l0,9.46c-2.836,1.278 -5.814,2.227 -8.933,2.845c-3.119,0.618 -6.824,0.927 -11.113,0.927c-7.905,0 -14.507,-1.971 -19.807,-5.913c-5.3,-3.942 -9.27,-9.514 -11.911,-16.716c-2.641,-7.202 -3.961,-15.703 -3.961,-25.505c0,-7.074 0.824,-13.541 2.473,-19.4c1.648,-5.859 4.059,-10.92 7.231,-15.181c3.173,-4.261 7.072,-7.553 11.698,-9.876c4.626,-2.322 9.934,-3.484 15.925,-3.484c3.935,0 7.728,0.469 11.379,1.406c3.651,0.938 6.948,2.28 9.89,4.027l-3.616,9.205c-2.481,-1.364 -5.202,-2.546 -8.162,-3.548c-2.96,-1.001 -6.159,-1.502 -9.598,-1.502Z" style="fill:#ccbf91;fill-rule:nonzero;"/><path d="M480.581,486.766l-9.093,0l0,-83.865l-24.459,0l0,-9.588l57.905,0l0,9.588l-24.353,0l0,83.865Z" style="fill:#ccbf91;fill-rule:nonzero;"/><path d="M565.445,486.766l-9.571,-29.66l-31.159,0l-9.518,29.66l-9.146,0l30.415,-93.837l8.135,0l30.202,93.837l-9.358,0Zm-12.283,-39.312l-9.093,-29.468c-0.213,-0.767 -0.558,-2.024 -1.037,-3.771c-0.479,-1.747 -0.966,-3.558 -1.462,-5.433c-0.496,-1.875 -0.904,-3.388 -1.223,-4.538c-0.354,1.747 -0.736,3.484 -1.143,5.21c-0.408,1.726 -0.806,3.324 -1.196,4.794c-0.39,1.47 -0.727,2.717 -1.01,3.739l-9.252,29.468l25.417,0Z" style="fill:#ccbf91;fill-rule:nonzero;"/></g><path d="M180.859,142.681l20.659,11.386l23.884,-12.757l-5.709,24.626l18.062,16.691l-25.11,4.08l-10.015,22.772l-10.386,-22.772l-26.594,-2.709l19.546,-16.579l-4.338,-24.739Z" style="fill:#ccbf91;"/><path d="M409.859,142.681l20.659,11.386l23.884,-12.757l-5.709,24.626l18.062,16.691l-25.11,4.08l-10.015,22.772l-10.386,-22.772l-26.594,-2.709l19.546,-16.579l-4.338,-24.739Z" style="fill:#ccbf91;"/><path d="M287.513,121.989l34.583,19.06l39.982,-21.355l-9.557,41.224l30.236,27.941l-42.034,6.83l-16.765,38.119l-17.386,-38.119l-44.517,-4.535l32.72,-27.753l-7.262,-41.413Z" style="fill:#ccbf91;"/><defs><linearGradient id="_Linear1" x1="0" y1="0" x2="1" y2="0" gradientUnits="userSpaceOnUse" gradientTransform="matrix(608.539895,0,0,805.780264,19.717313,427.655982)"><stop offset="0" style="stop-color:#22273d;stop-opacity:1"/><stop offset="1" style="stop-color:#2b4576;stop-opacity:1"/></linearGradient></defs></svg>