<?xml version="1.0" encoding="UTF-8" standalone="no"?>
<!DOCTYPE svg PUBLIC "-//W3C//DTD SVG 1.1//EN" "http://www.w3.org/Graphics/SVG/1.1/DTD/svg11.dtd">
<svg width="100%" height="100%" viewBox="0 0 141 97" version="1.1" xmlns="http://www.w3.org/2000/svg" xmlns:xlink="http://www.w3.org/1999/xlink" xml:space="preserve" xmlns:serif="http://www.serif.com/" style="fill:#231815;fill-rule:evenodd;clip-rule:evenodd;stroke-linejoin:round;stroke-miterlimit:2;">
    <g transform="matrix(1,0,0,1,-0.00027,-0.000461)">
        <g transform="matrix(1,0,0,1,-59.80921,-77.900539)">
            <g id="Fondo" transform="matrix(1,0,0,1,57,76)">
                <path d="M66.473,11.264L61.568,14.895C61.568,14.895 56.308,14.949 44.5,14.949C21.228,14.949 20.03,14.521 19.317,17.465C18.748,19.814 19.344,84.545 19.044,85.296C18.646,86.291 12.703,90.295 9.835,91.968C9.63,92.088 6.413,93.965 8.44,94.595C8.626,94.653 43.716,94.575 52.5,94.604C127.948,94.852 127.948,94.282 134.501,94.575C143.622,94.983 133.682,91.059 128.35,86.698C126.001,84.777 126.881,83.98 126.908,78.5C127.028,54.329 126.613,54.921 126.613,54.921L130.642,50.401C130.642,50.401 130.501,82.19 130.553,82.491C130.98,85.005 140.334,89.915 142.29,91.751C143.741,93.112 143.605,96.701 139.602,97.846C137.695,98.391 137.669,98.336 24.5,98.336C9.197,98.336 3.012,99.215 2.81,93.516C2.722,91.035 13.831,85.724 15.169,83.337C15.5,82.747 15.459,82.689 15.459,39.5C15.459,15.441 14.747,13.65 19.604,11.79C22.523,10.671 66.473,11.264 66.473,11.264Z"/>
                <path d="M58.916,17.394L55.315,19.937C55.315,19.937 53.676,20.093 41.5,20.093C27.672,20.093 25.876,20.067 25.381,20.206C23.895,20.622 24.257,23.31 24.257,29.5C24.257,79.378 24.178,79.6 24.838,80.075C25.248,80.37 29.126,80.369 29.5,80.369C120.463,80.347 120.569,80.5 121.161,80.074C122.41,79.177 121.469,59.516 121.469,59.516L124.162,56.772C124.162,56.772 124.355,60.102 124.355,66.5C124.355,80.784 124.952,82.496 121.463,83.052C118.938,83.455 118.928,83.156 89.5,83.112C24.27,83.013 23.987,83.505 22.629,82.332C21.482,81.34 21.645,81.046 21.645,54.5C21.645,19.269 21.458,18.794 22.846,17.997C24.357,17.129 58.916,17.394 58.916,17.394Z" style="fill-opacity:0.99;"/>
                <path d="M116.726,52.408L131.496,35.389L134.849,41.735L116.666,60.415L104.243,50.143L99.333,64.272L79.597,65.084L80.464,61.29L95.635,58.592L100.006,39.474L116.726,52.408Z" style="fill-opacity:0.94;"/>
                <path d="M70.507,1.901C70.507,1.901 80.414,9.255 81.361,10.148C80.971,10.54 65.363,22.081 65.363,22.081L78.057,30.351L71.435,48.694C71.435,48.694 70.256,46.679 70.283,46.481C70.662,43.702 72.972,33.297 72.972,33.297L57.367,21.926L73.987,9.987L65.706,4.272L70.507,1.901Z" style="fill-opacity:0.94;"/>
                <path d="M85.181,11.522C85.181,11.522 87.495,11.386 104.5,11.386C126.083,11.386 128.319,10.691 129.948,15.332C130.207,16.071 130.642,31.635 130.642,31.635L126.898,36.421C126.898,36.421 127.968,18.265 125.954,16.095C124.783,14.833 124.483,14.928 88.5,14.94C85.922,14.941 80.565,14.905 80.565,14.905L85.181,11.522Z"/>
                <path d="M78.501,20.101C77.52,20.126 73.987,20.087 73.987,20.087L77.257,17.394C77.257,17.394 81.683,17.462 118.5,17.49C122.818,17.493 124.21,17.192 124.344,21.504C124.414,23.748 124.394,38.428 124.394,38.428L121.56,41.735C121.56,41.735 122.136,21.508 121.37,20.612C120.855,20.009 120.675,20.084 87.5,20.085C86.78,20.085 79.115,20.086 78.501,20.101Z" style="fill-opacity:0.98;"/>
                <path d="M56.505,88.504C57.376,87.612 57.561,86.74 60.502,86.679C60.794,86.673 85.025,86.668 85.496,86.682C89.807,86.806 90.762,90.787 90.361,91.419C89.877,92.179 89.6,91.945 59.5,91.979C57.583,91.981 53.217,92.632 56.505,88.504Z"/>
            </g>
        </g>
    </g>
</svg>
