<?xml version="1.0" encoding="UTF-8" standalone="no"?>
<!DOCTYPE svg PUBLIC "-//W3C//DTD SVG 1.1//EN" "http://www.w3.org/Graphics/SVG/1.1/DTD/svg11.dtd">
<svg width="100%" height="100%" viewBox="0 0 159 93" version="1.1" xmlns="http://www.w3.org/2000/svg" xmlns:xlink="http://www.w3.org/1999/xlink" xml:space="preserve" xmlns:serif="http://www.serif.com/" style="fill:#231815;fill-rule:evenodd;clip-rule:evenodd;stroke-linejoin:round;stroke-miterlimit:2;">
    <g transform="matrix(1,0,0,1,-0.846186,-2.355798)">
        <g transform="matrix(0.938261,0,0,0.863057,-47.588598,-65.336867)">
            <g id="Fondo" transform="matrix(1.065802,0,0,1.158672,49.654103,75.266892)">
                <path d="M38.562,64.983C33.718,65.634 10.21,68.467 8.559,68.215C5.617,67.767 4.748,62.481 7.861,59.96C53.245,23.21 53.049,22.981 57.254,20.138C62.125,16.844 77.933,15.709 104.537,10.746C122.205,7.451 144.936,3.809 148.456,3.245C158.712,1.601 160.712,3.978 160.347,9.49C160.162,12.288 159.335,12.033 149.327,22.327C135.958,36.076 123.105,48.555 120.791,50.802C112.971,58.394 110.519,56.352 64.444,62.138C52.896,63.589 40.635,64.781 38.562,64.983ZM14.989,58.798C15.179,58.12 32.103,45.266 40.553,38.57C58.775,24.131 58.207,22.702 65.479,21.379C66.481,21.197 146.051,7.693 148.437,7.176C152.255,6.35 152.319,6.204 152.542,6.434C153.45,7.367 152.111,7.709 135.696,23.701C113.708,45.123 112.569,47.486 106.499,48.492C97.223,50.03 26.432,57.948 17.495,59.575C16.057,59.837 15.377,59.732 15.101,59.407C14.973,59.255 14.882,59.18 14.989,58.798ZM117.642,48.649C111.5,54.19 108.63,53.212 74.478,57.336C63.277,58.688 11.572,64.645 11.491,64.651C9.457,64.786 9.274,62.863 11.487,62.458C16.163,61.603 16.188,62.222 70.507,55.561C109.711,50.754 110.714,51.863 117.363,45.359C155.31,8.239 155.82,7.517 156.422,7.742C158.513,8.523 157.022,9.775 137.737,28.735C132.845,33.545 127.561,38.8 126.679,39.678C118.914,47.4 118.937,47.389 117.642,48.649Z" style="fill-opacity:0.99;"/>
                <path d="M121.672,81.965L104.057,75.079L113.505,74.755L133.504,84.503L102.273,84.012L109.388,91.493L83.773,86.992L68.605,95.573L54.854,87.476L27.741,92.456C27.741,92.456 35.098,85.095 34.97,84.733C34.851,84.397 1.846,84.067 1.846,84.067C1.846,84.067 17.7,77.939 19.415,77.292C21.865,76.367 24.007,75.066 24.007,75.066L34.022,74.481L16.794,81.323L42.491,80.925L37.093,87.391L55.475,84.295L68.378,91.335L82.974,83.979L100.131,87.214L95.381,80.649L121.672,81.965Z" style="fill-opacity:0.97;"/>
                <path d="M137.355,62.862L140.899,63.861L140.757,41.265L144.217,41.366L144.122,63.908L147.719,63.093L142.513,73.344L137.355,62.862Z" style="fill-opacity:0.99;"/>
            </g>
        </g>
    </g>
</svg>
