<?xml version="1.0" encoding="UTF-8" standalone="no"?>
<!DOCTYPE svg PUBLIC "-//W3C//DTD SVG 1.1//EN" "http://www.w3.org/Graphics/SVG/1.1/DTD/svg11.dtd">
<svg width="100%" height="100%" viewBox="0 0 127 99" version="1.1" xmlns="http://www.w3.org/2000/svg" xmlns:xlink="http://www.w3.org/1999/xlink" xml:space="preserve" xmlns:serif="http://www.serif.com/" style="fill:#231815;fill-rule:evenodd;clip-rule:evenodd;stroke-linejoin:round;stroke-miterlimit:2;">
    <g transform="matrix(1,0,0,1,-66.990135,-80.971856)">
        <g id="Fondo" transform="matrix(1,0,0,1,65,79)">
            <path d="M112.507,29.644C108.802,29.699 19.486,29.763 18.488,29.603C16.366,29.264 16.409,28.681 11.833,15.366C10.235,10.718 9.111,8.396 13.499,8.266C14.581,8.234 117.174,8.188 118.508,8.291C122.979,8.637 121.143,11.097 116.449,24.482C116.344,24.781 115.292,27.781 115.068,28.188C114.268,29.647 112.551,29.632 112.507,29.644ZM106.5,26.895C20.028,26.895 20.015,26.917 19.41,26.71C18.374,26.357 18.29,25.774 14.029,13.65C13.78,12.939 12.618,11.138 15.438,11.009C21.996,10.71 21.998,11.011 97.5,11.011C111.992,11.011 111.975,11.019 114.5,10.954C117.147,10.886 118.315,10.977 117.511,13.503C116.335,17.201 114.358,22.565 114.069,23.348C113.972,23.611 113.127,25.903 112.468,26.456C111.765,27.046 107.591,26.892 106.5,26.895Z" style="fill-opacity:0.96;"/>
            <path d="M10.811,83.542C10.902,83.531 12.338,83.571 13.362,83.409C14.494,83.23 15.219,82.853 15.205,82.958C15.163,83.285 13.478,94.841 16.634,96.055C17.147,96.253 17.177,96.208 98.5,96.208C114.464,96.208 115.184,96.523 116.052,94.352C116.597,92.989 115.927,76.036 116.435,67.501C116.619,64.402 116.294,59.852 116.363,58.502C116.742,51.114 116.214,51.127 116.332,48.501C116.829,37.409 115.869,36.682 116.307,32.487C116.485,30.777 123.735,12.347 124.089,9.437C124.498,6.074 120.898,5.772 120.486,5.737C116.8,5.427 22.059,5.655 13.5,5.676C5.584,5.695 7.551,9.6 10.405,18.528C14.301,30.717 14.645,31.048 14.673,33.498C14.752,40.373 14.397,40.331 13.689,42.568C12.667,45.795 13.08,49.24 13.08,49.24L10.67,49.247C10.67,49.247 11.481,33.756 9.319,27.561C8.897,26.352 4.633,12.26 4.434,11.518C2.777,5.358 6.669,1.825 11.504,1.977C18.263,2.188 118.402,1.975 121.526,2.082C126.76,2.262 127.967,6.774 128.01,8.509C128.091,11.795 121.486,27.773 120.534,31.509C119.847,34.206 120.388,80.84 120.207,92.493C120.068,101.423 112.794,99.973 110.5,99.973C25.429,99.98 25.433,99.868 17.505,100.037C9.644,100.203 10.723,92.031 10.811,83.542Z" style="fill-opacity:1;"/>
            <path d="M82.941,83.5C82.941,90.078 83.349,91.372 81.653,91.922C80.918,92.16 80.904,92.17 52.5,92.163C49.516,92.162 48.491,92.473 48.401,89.503C48.001,76.348 48.543,76.094 49.553,75.621C50.48,75.186 80.939,75.376 81.497,75.511C83.28,75.94 82.941,77.947 82.941,83.5Z" style="fill-opacity:1;"/>
            <path d="M43.448,61.467C43.493,61.415 43.37,60.545 44.464,60.307C45.327,60.119 85.054,60.507 91.496,60.604C93.469,60.634 94.036,60.587 94.092,62.555C94.244,67.812 94.119,68.678 91.506,68.73C90.357,68.754 49.177,68.74 45.497,68.739C43.908,68.738 43.074,68.918 43.177,66.53C43.286,63.995 43.383,64.022 43.448,61.467Z"/>
            <path d="M12.113,81.168C11.469,81.216 8.356,81.366 6.282,79.818C-1.487,74.02 3.647,65.793 3.737,65.631C5.722,62.037 5.692,62.024 5.879,61.72C10.423,54.335 10.191,54.207 10.65,53.61C12.723,50.908 14.857,56.388 15.889,58.281C17.597,61.412 21.547,66.79 21.87,70.461C22.551,78.211 15.791,80.894 12.113,81.168Z" style="fill-opacity:1;"/>
            <path d="M41.523,63.261C41.464,64.797 41.452,65.895 39.756,67.765C37.557,70.19 33.072,70.776 29.925,67.158C27.669,63.072 27.618,61.947 32.314,54.394C34.276,51.237 33.936,50.419 35.45,50.665C36.402,50.82 38.248,55.066 39.69,57.392C41.15,59.746 41.418,60.507 41.523,63.261Z" style="fill-opacity:1;"/>
            <path d="M24.703,37.385C26.551,40.638 31.142,46.22 26.711,50.707C22.391,55.082 14.486,51.914 15.806,44.575C15.932,43.878 16.22,42.273 19.723,36.626C20.504,35.367 21.411,32.929 22.692,34.155C23.668,35.09 23.947,36.162 24.703,37.385Z" style="fill-opacity:1;"/>
            <path d="M105.499,50.152C112.657,50.525 112.756,50.186 113.353,50.661C114.071,51.232 113.925,54.191 113.909,54.501C113.83,56.099 114.27,58.077 112.383,58.129C104.73,58.338 104.197,58.295 103.488,58.237C100.702,58.01 97.197,58.536 96.663,57.392C96.483,57.006 96.496,52.204 96.596,51.54C96.845,49.891 98.241,50.505 105.499,50.152Z"/>
            <path d="M37.09,43.498C37.099,43.259 37.196,40.931 37.553,40.539C38.669,39.31 43.014,39.815 43.669,40.049C44.956,40.509 44.883,41.824 44.82,45.514C44.767,48.636 43.622,48.227 40.503,48.212C36.242,48.191 37.165,45.595 37.09,43.498Z"/>
            <path d="M110.501,68.736C107.643,68.568 107.488,68.919 106.758,68.173C106.208,67.611 106.024,61.473 106.898,60.867C107.358,60.548 112.767,60.511 113.248,60.796C113.893,61.178 114.935,67.975 112.527,68.606C112.37,68.647 112.377,68.615 110.501,68.736Z"/>
            <path d="M70.5,39.786C73.137,39.909 73.13,39.851 73.348,39.919C73.401,39.936 74.226,40.663 74.251,40.715C74.418,41.067 74.427,46.898 74.229,47.271C73.657,48.346 68.042,47.927 67.402,47.611C66.774,47.301 66.895,45.664 66.907,43.502C66.918,41.51 66.024,41.038 67.712,39.968C67.919,39.836 70.277,39.79 70.5,39.786Z"/>
            <path d="M110.499,39.786C112.561,39.865 113.792,39.537 113.902,42.476C114.047,46.375 113.972,47.545 112.621,47.823C111.346,48.085 109.756,48.016 109.507,48.005C109.273,47.995 107.068,47.898 106.654,47.366C106.2,46.784 106.235,41.145 106.612,40.597C107.062,39.944 108.35,39.812 108.514,39.795C109.172,39.727 109.841,39.854 110.499,39.786Z"/>
            <path d="M90.5,39.786C91.66,39.806 93.436,39.555 94.077,40.836C94.103,40.888 94.102,44.205 94.102,44.498C94.102,46.7 94.79,47.574 92.599,47.866C92.268,47.91 90.451,48.153 88.425,47.881C86.168,47.579 86.691,46.767 86.673,44.499C86.652,41.701 86.552,40.906 87.305,40.21C87.91,39.651 88.01,39.906 90.5,39.786Z"/>
            <path d="M80.5,39.786C83.114,39.928 83.11,39.861 83.322,39.94C83.376,39.959 84.142,40.741 84.152,40.785C84.205,41.015 84.221,47.001 84.133,47.209C83.668,48.296 77.292,48.195 76.871,47.199C76.796,47.02 76.811,40.988 76.855,40.795C77.059,39.899 78.382,39.824 78.538,39.816C79.191,39.779 79.847,39.823 80.5,39.786Z"/>
            <path d="M47.175,43.499C47.228,41.583 47.204,41.593 47.232,41.43C47.717,38.613 53.907,39.869 54.406,40.58C54.796,41.137 54.804,46.843 54.382,47.397C53.734,48.247 48.05,48.021 47.542,47.466C47.249,47.147 47.182,43.818 47.175,43.499Z"/>
            <path d="M100.501,68.736C97.774,68.542 96.642,69.224 96.543,66.494C96.345,61.037 96.827,60.834 97.597,60.69C98.368,60.546 102.77,60.575 103.236,60.81C104.494,61.444 103.835,61.851 103.931,64.5C104.012,66.739 104.295,66.805 103.778,67.695C103.032,68.979 101.812,68.672 100.501,68.736Z"/>
            <path d="M100.5,39.786C102.697,39.839 103.524,39.192 103.881,41.37C103.934,41.694 103.858,41.696 104.023,45.472C104.137,48.086 103.122,47.758 100.501,47.902C100.196,47.918 97.183,48.084 96.722,47.314C96.447,46.852 96.468,41.112 96.7,40.673C96.729,40.619 97.581,39.923 97.638,39.907C97.858,39.845 97.849,39.898 100.5,39.786Z"/>
            <path d="M60.501,39.786C63.156,39.896 62.729,39.761 63.368,39.905C63.764,39.994 64.279,40.249 64.33,40.651C64.487,41.889 64.616,46.85 64.307,47.333C63.656,48.35 57.841,47.916 57.461,47.538C56.914,46.996 57.09,43.241 57.102,42.479C57.13,40.743 56.912,40.344 58.557,39.838C58.557,39.838 60.345,39.79 60.501,39.786Z"/>
            <path d="M47.952,58.107C47.788,57.824 46.924,57.561 46.969,55.493C47.054,51.497 46.657,50.408 49.487,50.328C53.053,50.227 54.313,50.251 54.578,51.467C54.642,51.76 55.032,57.717 54.01,58.056C53.658,58.173 49.028,58.128 47.952,58.107Z"/>
            <path d="M70.5,50.318C73.421,50.452 73.614,50.056 74.166,50.833C74.391,51.15 74.382,54.206 74.381,54.5C74.373,57.014 74.947,58.047 72.448,58.127C67.289,58.292 67.383,57.74 67.315,57.673C66.975,57.335 66.681,57.043 66.936,51.685C67.013,50.077 68.513,50.355 70.5,50.318Z"/>
            <path d="M90.5,50.318C93.366,50.534 93.597,50.17 94.018,50.959C94.13,51.169 94.105,57.069 94.067,57.206C93.817,58.105 92.564,58.128 92.413,58.131C89.022,58.194 86.801,58.544 86.701,56.459C86.428,50.8 87.018,50.612 87.479,50.465C87.479,50.465 90.259,50.329 90.5,50.318Z"/>
            <path d="M57.098,54.501C57.2,51.526 56.715,51.301 57.591,50.611C58.04,50.256 63.631,50.062 64.227,50.777C64.538,51.15 64.529,54.201 64.528,54.5C64.52,57.051 65.009,58.063 62.46,58.132C57.605,58.265 57.464,57.791 57.371,57.606C56.893,56.653 57.126,56.617 57.098,54.501Z"/>
            <path d="M80.5,50.318C80.74,50.332 83.5,50.5 83.5,50.5C83.95,50.661 84.383,50.816 84.182,56.439C84.108,58.531 81.937,58.211 78.576,58.119C78.423,58.115 77.154,58.08 76.873,57.242C76.804,57.034 76.772,51.18 76.926,50.914C77.382,50.13 77.614,50.504 80.5,50.318Z"/>
        </g>
    </g>
</svg>
